<svg xmlns="http://www.w3.org/2000/svg" viewBox="0 0 120 96" role="img" aria-labelledby="title desc">
  <title id="title">羽毛信标志</title>
  <desc id="desc">一枚由飞鸟羽翼与信封组成的标志</desc>
  <path fill="#88925f" d="M15 62 58 43l43 19v27H15Z"/>
  <path fill="none" stroke="#f4f0e5" stroke-linecap="square" stroke-linejoin="miter" stroke-width="6" d="m17 62 41 26 41-26"/>
  <path fill="#174f4b" d="M14 79c1-22 12-38 31-48C62 22 84 14 112 5c-4 15-13 29-27 42-13 12-29 21-46 26-10 3-18 5-25 6Z"/>
  <path fill="none" stroke="#f4f0e5" stroke-linecap="round" stroke-width="4.5" d="M34 67c23-13 43-29 61-49M46 67c20-10 37-21 51-35"/>
</svg>
